# Blender v2.77 (sub 0) OBJ File: ''
# www.blender.org
o Cube
v 0.725453 0.989514 -1.222530
v -1.209765 1.010377 -0.718057
v -0.705265 1.010377 1.217267
v 1.229954 0.989514 0.712794
v 0.705264 -1.010377 -1.217268
v -1.229954 -0.989514 -0.712794
v -0.725453 -0.989514 1.222530
v 1.209765 -1.010377 0.718057
vt 1.0000 0.0000
vt 0.0000 1.0000
vt 0.0000 0.0000
vt 1.0000 0.0000
vt 0.0000 1.0000
vt 0.0000 0.0000
vt 1.0000 0.0000
vt 0.0000 1.0000
vt 1.0000 0.0000
vt 0.0000 1.0000
vt 0.0000 0.0000
vt 1.0000 0.0000
vt 0.0000 0.0000
vt 1.0000 0.0000
vt 0.0000 1.0000
vt 1.0000 1.0000
vt 1.0000 1.0000
vt 1.0000 1.0000
vt 1.0000 1.0000
vt 1.0000 1.0000
vn 0.0101 0.9999 -0.0026
vn -0.0101 -0.9999 0.0026
vn -0.2523 0.0000 -0.9677
vn -0.9676 0.0104 0.2522
vn 0.2523 0.0000 0.9677
vn 0.9676 -0.0104 -0.2522
s off
f 2/1/1 4/2/1 1/3/1
f 8/4/2 6/5/2 5/6/2
f 5/7/3 2/8/3 1/3/3
f 6/9/4 3/10/4 2/11/4
f 7/12/5 4/2/5 3/13/5
f 1/14/6 8/15/6 5/6/6
f 2/1/1 3/16/1 4/2/1
f 8/4/2 7/17/2 6/5/2
f 5/7/3 6/18/3 2/8/3
f 6/9/4 7/17/4 3/10/4
f 7/12/5 8/19/5 4/2/5
f 1/14/6 4/20/6 8/15/6
