# Wavefront OBJ exported by MilkShape 3D

mtllib tree_00.mtl

v 6.962000 -4.984800 0.164600
v 5.103450 -0.856100 -4.668900
v 7.037400 -0.856100 0.000000
v 4.787600 -4.984800 -5.084950
v 0.434650 -0.856100 -6.602750
v -0.025350 -4.984800 -5.392150
v -4.234250 -0.856100 -4.668900
v -5.319650 -4.984800 -4.257000
v -6.168099 -0.856100 0.000000
v -8.836550 -4.984800 0.272100
v -4.234250 -0.856100 4.668900
v -6.340150 -4.984800 5.491200
v 0.434650 -0.856100 6.602750
v -0.462000 -4.984800 7.588601
v 5.103450 -0.856100 4.668900
v 3.146900 -4.984800 3.386450
v 3.146300 17.133801 -1.947850
v 4.449600 16.669048 1.392600
v 0.000000 18.255951 -3.331500
v -3.146300 19.378101 -1.947850
v -4.449600 19.842949 1.392600
v -3.146300 19.378101 4.733050
v 0.000000 18.255951 6.116700
v 3.146300 17.133801 4.733050
v -69.436005 76.267746 23.145399
v -50.245548 61.125603 53.964401
v -7.694650 114.655602 7.694650
v -23.145298 76.267746 69.436005
v 7.694650 114.655602 7.694650
v 23.145399 76.267746 69.436005
v 69.436005 76.267746 23.145399
v 52.520947 82.516701 55.492348
v -69.436005 76.267746 -23.145298
v -7.694650 114.655602 -7.694650
v 7.694650 114.655602 -7.694650
v 69.436005 76.267746 -23.145298
v -49.223198 83.535347 -45.851051
v -23.145298 76.267746 -69.436005
v 23.145399 76.267746 -69.436005
v 55.565601 64.181450 -57.565304
v -63.549900 100.840492 -15.250300
v -63.560898 85.698456 17.167351
v -9.464850 139.228455 2.197400
v -50.330254 100.840492 41.689751
v 2.197400 139.228455 9.464850
v -15.250300 100.840492 63.549900
v 41.689751 100.840492 50.330254
v 13.595901 107.089554 66.855400
v -41.689751 100.840492 -50.330254
v -2.197400 139.228455 -9.464850
v 9.464850 139.228455 -2.197400
v 63.549900 100.840492 15.250300
v -15.649651 108.108200 -57.991646
v 15.250300 100.840492 -63.549900
v 50.330254 100.840492 -41.689751
v 69.292953 88.754257 -17.383850
v -42.499802 118.901146 -35.772751
v -54.843300 106.030350 -11.137100
v -8.030100 151.530899 -1.931250
v -54.118004 118.901146 12.536150
v -1.931250 151.530899 8.030100
v -35.772751 118.901146 42.499802
v 12.536150 118.901146 54.118004
v -15.105300 124.212799 55.988350
v -12.536150 118.901146 -54.118004
v 1.931250 151.530899 -8.030100
v 8.030100 151.530899 1.931250
v 42.499802 118.901146 35.772751
v 10.171499 125.078590 -50.032803
v 35.772751 118.901146 -42.499802
v 54.118004 118.901146 -12.536150
v 59.282497 108.627792 13.153701
v -18.427502 133.105255 -53.581802
v -42.144199 119.977043 -38.499550
v -6.013100 166.387604 -5.900050
v -53.921997 133.105255 -17.407101
v -5.900050 166.387604 6.013100
v -53.581852 133.105255 18.427502
v -17.407101 133.105255 53.921997
v -42.571850 138.523102 41.065403
v 17.407101 133.105255 -53.921997
v 5.900050 166.387604 -6.013100
v 6.013100 166.387604 5.900050
v 18.427502 133.105255 53.581852
v 35.132553 139.406296 -38.441601
v 53.581852 133.105255 -18.427502
v 53.921997 133.105255 17.407101
v 44.970802 122.626450 42.591553
v -47.662449 144.102051 -11.437650
v -47.670650 135.265640 12.875500
v -7.098600 166.503784 1.648100
v -37.747601 144.102051 31.267353
v 1.648100 166.503784 7.098700
v -11.437650 144.102051 47.662449
v 31.267353 144.102051 37.747650
v 10.196850 147.748657 50.141548
v -31.267353 144.102051 -37.747650
v -1.648100 166.503784 -7.098600
v 7.098600 166.503784 -1.648100
v 47.662449 144.102051 11.437750
v -11.737200 148.343094 -43.493752
v 11.437650 144.102051 -47.662449
v 37.747601 144.102051 -31.267353
v 51.969700 137.048950 -13.037950
v -5.897500 160.270813 -41.243748
v -25.110851 152.759888 -33.631752
v -3.526500 179.312302 -5.092501
v -36.533550 160.270813 -20.028200
v -5.092501 179.312302 3.526500
v -41.243748 160.270813 5.897500
v -20.028250 160.270813 36.533550
v -36.423450 163.370453 23.768599
v 20.028250 160.270813 -36.533501
v 5.092501 179.312302 -3.526500
v 3.526500 179.312302 5.092501
v 5.897500 160.270813 41.243748
v 30.688200 163.875748 -22.902601
v 41.243748 160.270813 -5.897500
v 36.533550 160.270813 20.028250
v 26.586248 154.275696 36.977802
v -13.820649 169.048248 -40.186348
v -31.608150 161.387039 -28.874649
v -4.509850 188.470490 -4.425000
v -40.441551 169.048248 -13.055349
v -4.425000 188.470490 4.509850
v -40.186348 169.048248 13.820649
v -13.055349 169.048248 40.441551
v -31.928848 172.209900 30.799049
v 13.055349 169.048248 -40.441452
v 4.425000 188.470490 -4.509850
v 4.509850 188.470490 4.425000
v 13.820649 169.048248 40.186348
v 26.349449 172.725250 -28.831150
v 40.186348 169.048248 -13.820649
v 40.441551 169.048248 13.055349
v 33.728100 162.933136 31.943604
v 3.146300 17.133801 -1.947850
v 4.449600 16.669048 1.392600
v 0.000000 18.255951 -3.331500
v -3.146300 19.378101 -1.947850
v -4.449600 19.842949 1.392600
v -3.146300 19.378101 4.733050
v 0.000000 18.255951 6.116700
v 3.146300 17.133801 4.733050
v 2.387750 147.423004 0.000000
v 2.387750 147.423004 0.000000
v 2.387750 147.423004 0.000000
v 2.387750 147.423004 0.000000
v 2.387750 147.423004 0.000000
v 2.387750 147.423004 0.000000
v 2.387750 147.423004 0.000000
v 2.387750 147.423004 0.000000
# 152 vertices

vt 0.482480 0.502550
vt 0.497340 0.575490
vt 0.482480 0.575490
vt 0.497340 0.502550
vt 0.378440 0.502550
vt 0.393300 0.575490
vt 0.378440 0.575490
vt 0.393300 0.502550
vt 0.408160 0.575490
vt 0.408160 0.502550
vt 0.423020 0.575490
vt 0.423020 0.502550
vt 0.437890 0.575490
vt 0.437890 0.502550
vt 0.452750 0.575490
vt 0.452750 0.502550
vt 0.467610 0.575490
vt 0.467610 0.502550
vt 0.482480 0.577480
vt 0.497450 0.746440
vt 0.482480 0.746440
vt 0.497450 0.577480
vt 0.377700 0.577480
vt 0.392670 0.746440
vt 0.377700 0.746440
vt 0.392670 0.577480
vt 0.407640 0.746440
vt 0.407640 0.577480
vt 0.422610 0.746440
vt 0.422610 0.577480
vt 0.437570 0.746440
vt 0.437570 0.577480
vt 0.452540 0.746440
vt 0.452540 0.577480
vt 0.467510 0.746440
vt 0.467510 0.577480
vt 0.482660 0.578870
vt 0.497630 0.747830
vt 0.482660 0.747830
vt 0.497630 0.578870
vt 0.377880 0.578870
vt 0.392850 0.747830
vt 0.377880 0.747830
vt 0.392850 0.578870
vt 0.407820 0.747830
vt 0.407820 0.578870
vt 0.422790 0.747830
vt 0.422790 0.578870
vt 0.437750 0.747830
vt 0.437750 0.578870
vt 0.452720 0.747830
vt 0.452720 0.578870
vt 0.467690 0.747830
vt 0.467690 0.578870
vt 0.000000 0.841810
vt 0.000000 0.762710
vt 0.110520 0.868210
vt 0.082860 0.762710
vt 0.138070 0.868210
vt 0.165720 0.762710
vt 0.248590 0.841810
vt 0.248590 0.762710
vt 0.000000 0.920900
vt 0.110520 0.894500
vt 0.138070 0.894500
vt 0.248590 0.920900
vt 0.000000 1.000000
vt 0.082860 1.000000
vt 0.165720 1.000000
vt 0.248590 1.000000
# 70 texture coordinates

vn 0.999833 -0.018272 -0.000440
vn 0.797340 -0.000185 -0.603531
vn 0.938632 -0.197483 0.282790
vn 0.514890 -0.096285 -0.851832
vn 0.024810 -0.158411 -0.987062
vn -0.177775 -0.188178 -0.965912
vn -0.550941 -0.023846 -0.834204
vn -0.676008 0.215642 -0.704636
vn -0.879145 0.422086 -0.221242
vn -0.846518 0.529523 0.054890
vn -0.681513 0.480033 0.552366
vn -0.519636 0.395229 0.757477
vn -0.107113 0.276442 0.955043
vn 0.288210 -0.027343 0.957177
vn 0.678156 -0.308313 0.667119
vn 0.739894 -0.335197 0.583266
vn 0.981207 0.151425 -0.119596
vn 0.808010 0.177032 -0.561943
vn 0.981739 0.130547 0.138368
vn 0.616458 0.177996 -0.767005
vn 0.169623 0.177386 -0.969413
vn -0.125973 0.163000 -0.978551
vn -0.592815 0.140976 -0.792904
vn -0.793254 0.123304 -0.596275
vn -0.986408 0.090459 -0.137177
vn -0.988564 0.072279 0.132350
vn -0.802110 0.042478 0.595663
vn -0.607636 0.029137 0.793681
vn -0.132347 0.023677 0.990921
vn 0.147633 0.030697 0.988566
vn 0.618996 0.061303 0.782998
vn 0.800575 0.087430 0.592820
vn 0.999876 0.015761 -0.000522
vn 0.932060 0.010841 -0.362142
vn 0.932316 0.018548 0.361169
vn 0.724136 0.014524 -0.689504
vn 0.407294 0.016023 -0.913157
vn 0.007748 0.025640 -0.999641
vn -0.393094 0.030969 -0.918977
vn -0.715633 0.041536 -0.697240
vn -0.928459 0.045735 -0.368609
vn -0.998567 0.053521 0.000441
vn -0.927703 0.053751 0.369430
vn -0.712536 0.056646 0.699345
vn -0.386821 0.050753 0.920757
vn 0.014217 0.047035 0.998792
vn 0.412881 0.035465 0.910094
vn 0.726488 0.029170 0.686559
vn -0.480965 0.853784 0.199312
vn -0.467232 0.760772 0.450467
vn -0.259476 0.931867 0.253566
vn -0.207366 0.853202 0.478588
vn 0.260738 0.929533 0.260738
vn 0.021285 0.974305 0.224224
vn 0.224224 0.974305 0.021285
vn -0.351397 0.867779 -0.351397
vn -0.127677 0.981220 0.144588
vn -0.260738 0.929533 -0.260738
vn 0.241259 0.940151 -0.240645
vn 0.494499 0.856005 -0.150751
vn 0.687182 0.235718 0.687182
vn 0.144588 0.981220 -0.127677
vn 0.151608 0.855985 -0.494271
vn 0.417910 0.807557 -0.416177
vn -0.555629 0.825990 -0.094958
vn -0.675604 0.723046 0.144096
vn -0.383827 0.919524 0.084566
vn -0.462678 0.825381 0.323536
vn 0.091252 0.914981 0.393044
vn -0.112504 0.968472 0.222270
vn 0.198926 0.968473 0.149965
vn -0.122092 0.841753 -0.525877
vn -0.216814 0.975886 0.025276
vn -0.091252 0.914981 -0.393044
vn 0.361591 0.928593 -0.083467
vn 0.540948 0.828348 0.145656
vn 0.221029 0.211649 0.952024
vn 0.205771 0.975886 -0.072836
vn 0.422081 0.828326 -0.368407
vn 0.617013 0.774053 -0.141904
vn -0.454338 0.825990 -0.333643
vn -0.668635 0.723045 -0.173587
vn -0.381077 0.919525 -0.096203
vn -0.558562 0.825381 0.082185
vn -0.094351 0.914981 0.392311
vn -0.200103 0.968473 0.148391
vn 0.110746 0.968472 0.223151
vn 0.126237 0.841753 -0.524896
vn -0.205189 0.975886 -0.074457
vn 0.094351 0.914981 -0.392311
vn 0.360702 0.928593 0.087231
vn 0.418514 0.828348 0.372405
vn -0.228533 0.211656 0.950250
vn 0.216607 0.975886 0.026986
vn 0.542347 0.828326 -0.140483
vn 0.615260 0.774053 0.149318
vn -0.218209 0.825990 -0.519736
vn -0.484300 0.723045 -0.492604
vn -0.277422 0.919524 -0.278410
vn -0.521362 0.825381 -0.216628
vn -0.282595 0.914981 0.288011
vn -0.247921 0.968472 0.024426
vn -0.019715 0.968472 0.248340
vn 0.378096 0.841757 -0.385343
vn -0.137731 0.975886 -0.169343
vn 0.282595 0.914981 -0.288011
vn 0.264557 0.928593 0.260240
vn 0.167555 0.828348 0.534570
vn -0.684496 0.211656 0.697615
vn 0.171927 0.975886 0.134491
vn 0.537421 0.828326 0.158287
vn 0.450992 0.774054 0.444350
vn -0.463627 0.882910 -0.074297
vn -0.583561 0.802531 0.124098
vn -0.319598 0.944947 0.070231
vn -0.388814 0.882374 0.265028
vn 0.074375 0.944376 0.320347
vn -0.087587 0.980038 0.178478
vn 0.157263 0.980038 0.121631
vn -0.100980 0.894779 -0.434940
vn -0.149985 0.984818 0.087399
vn -0.074375 0.944376 -0.320348
vn 0.297672 0.952192 -0.068710
vn 0.450148 0.884919 0.119519
vn 0.217873 0.268136 0.938421
vn 0.173150 0.984818 0.012377
vn 0.352004 0.884901 -0.305029
vn 0.523248 0.843641 -0.120335
vn -0.101845 0.882910 -0.458364
vn -0.330483 0.802531 -0.496714
vn -0.183101 0.944947 -0.271200
vn -0.389696 0.882374 -0.263730
vn -0.270369 0.944376 0.187230
vn -0.198196 0.980038 -0.015624
vn -0.055090 0.980038 0.191025
vn 0.367084 0.894778 -0.254206
vn -0.136532 0.984818 -0.107204
vn 0.270369 0.944376 -0.187231
vn 0.173604 0.952192 0.251379
vn 0.054839 0.884919 0.462505
vn -0.792009 0.268150 0.548468
vn 0.052327 0.984818 0.165515
vn 0.413310 0.884901 0.214767
vn 0.304751 0.843642 0.442036
vn -0.186242 0.882911 -0.431025
vn -0.418009 0.802531 -0.425691
vn -0.230842 0.944947 -0.231919
vn -0.432343 0.882375 -0.185726
vn -0.230326 0.944376 0.234742
vn -0.197595 0.980038 0.021931
vn -0.018175 0.980038 0.197975
vn 0.312724 0.894776 -0.318716
vn -0.154261 0.984818 -0.079609
vn 0.230326 0.944376 -0.234742
vn 0.217787 0.952192 0.214239
vn 0.140855 0.884920 0.443933
vn -0.674716 0.268140 0.687647
vn 0.082522 0.984818 0.152721
vn 0.446326 0.884902 0.133196
vn 0.382452 0.843641 0.376828
# 160 normals

g veg_level_0
usemtl 01___Default
s 1
f 1/1/1 2/2/2 3/3/3
f 1/1/1 4/4/4 2/2/2
f 4/5/4 5/6/5 2/7/2
f 4/5/4 6/8/6 5/6/5
f 6/8/6 7/9/7 5/6/5
f 6/8/6 8/10/8 7/9/7
f 8/10/8 9/11/9 7/9/7
f 8/10/8 10/12/10 9/11/9
f 10/12/10 11/13/11 9/11/9
f 10/12/10 12/14/12 11/13/11
f 12/14/12 13/15/13 11/13/11
f 12/14/12 14/16/14 13/15/13
f 14/16/14 15/17/15 13/15/13
f 14/16/14 16/18/16 15/17/15
f 16/18/16 3/3/3 15/17/15
f 16/18/16 1/1/1 3/3/3
s 8
f 3/19/17 17/20/18 18/21/19
f 3/19/17 2/22/20 17/20/18
f 2/23/20 19/24/21 17/25/18
f 2/23/20 5/26/22 19/24/21
f 5/26/22 20/27/23 19/24/21
f 5/26/22 7/28/24 20/27/23
f 7/28/24 21/29/25 20/27/23
f 7/28/24 9/30/26 21/29/25
f 9/30/26 22/31/27 21/29/25
f 9/30/26 11/32/28 22/31/27
f 11/32/28 23/33/29 22/31/27
f 11/32/28 13/34/30 23/33/29
f 13/34/30 24/35/31 23/33/29
f 13/34/30 15/36/32 24/35/31
f 15/36/32 18/21/19 24/35/31
f 15/36/32 3/19/17 18/21/19
# 32 triangles in group

g veg_level_1
usemtl 01___Default
f 138/37/33 145/38/34 146/39/35
f 138/37/33 137/40/36 145/38/34
f 137/41/36 147/42/37 145/43/34
f 137/41/36 139/44/38 147/42/37
f 139/44/38 148/45/39 147/42/37
f 139/44/38 140/46/40 148/45/39
f 140/46/40 149/47/41 148/45/39
f 140/46/40 141/48/42 149/47/41
f 141/48/42 150/49/43 149/47/41
f 141/48/42 142/50/44 150/49/43
f 142/50/44 151/51/45 150/49/43
f 142/50/44 143/52/46 151/51/45
f 143/52/46 152/53/47 151/51/45
f 143/52/46 144/54/48 152/53/47
f 144/54/48 146/39/35 152/53/47
f 144/54/48 138/37/33 146/39/35
# 16 triangles in group

g veg_level_2
usemtl 01___Default
s 1
f 25/55/49 26/56/50 27/57/51
f 28/58/52 27/57/51 26/56/50
f 27/57/51 28/58/52 29/59/53
f 30/60/54 29/59/53 28/58/52
f 29/59/53 30/60/54 31/61/55
f 32/62/56 31/61/55 30/60/54
f 33/63/57 25/55/49 34/64/58
f 27/57/51 34/64/58 25/55/49
f 34/64/58 27/57/51 35/65/59
f 29/59/53 35/65/59 27/57/51
f 35/65/59 29/59/53 36/66/60
f 31/61/55 36/66/60 29/59/53
f 37/67/61 33/63/57 38/68/62
f 34/64/58 38/68/62 33/63/57
f 38/68/62 34/64/58 39/69/63
f 35/65/59 39/69/63 34/64/58
f 39/69/63 35/65/59 40/70/64
f 36/66/60 40/70/64 35/65/59
f 41/55/65 42/56/66 43/57/67
f 44/58/68 43/57/67 42/56/66
f 43/57/67 44/58/68 45/59/69
f 46/60/70 45/59/69 44/58/68
f 45/59/69 46/60/70 47/61/71
f 48/62/72 47/61/71 46/60/70
f 49/63/73 41/55/65 50/64/74
f 43/57/67 50/64/74 41/55/65
f 50/64/74 43/57/67 51/65/75
f 45/59/69 51/65/75 43/57/67
f 51/65/75 45/59/69 52/66/76
f 47/61/71 52/66/76 45/59/69
f 53/67/77 49/63/73 54/68/78
f 50/64/74 54/68/78 49/63/73
f 54/68/78 50/64/74 55/69/79
f 51/65/75 55/69/79 50/64/74
f 55/69/79 51/65/75 56/70/80
f 52/66/76 56/70/80 51/65/75
f 57/55/81 58/56/82 59/57/83
f 60/58/84 59/57/83 58/56/82
f 59/57/83 60/58/84 61/59/85
f 62/60/86 61/59/85 60/58/84
f 61/59/85 62/60/86 63/61/87
f 64/62/88 63/61/87 62/60/86
f 65/63/89 57/55/81 66/64/90
f 59/57/83 66/64/90 57/55/81
f 66/64/90 59/57/83 67/65/91
f 61/59/85 67/65/91 59/57/83
f 67/65/91 61/59/85 68/66/92
f 63/61/87 68/66/92 61/59/85
f 69/67/93 65/63/89 70/68/94
f 66/64/90 70/68/94 65/63/89
f 70/68/94 66/64/90 71/69/95
f 67/65/91 71/69/95 66/64/90
f 71/69/95 67/65/91 72/70/96
f 68/66/92 72/70/96 67/65/91
f 73/55/97 74/56/98 75/57/99
f 76/58/100 75/57/99 74/56/98
f 75/57/99 76/58/100 77/59/101
f 78/60/102 77/59/101 76/58/100
f 77/59/101 78/60/102 79/61/103
f 80/62/104 79/61/103 78/60/102
f 81/63/105 73/55/97 82/64/106
f 75/57/99 82/64/106 73/55/97
f 82/64/106 75/57/99 83/65/107
f 77/59/101 83/65/107 75/57/99
f 83/65/107 77/59/101 84/66/108
f 79/61/103 84/66/108 77/59/101
f 85/67/109 81/63/105 86/68/110
f 82/64/106 86/68/110 81/63/105
f 86/68/110 82/64/106 87/69/111
f 83/65/107 87/69/111 82/64/106
f 87/69/111 83/65/107 88/70/112
f 84/66/108 88/70/112 83/65/107
f 89/55/113 90/56/114 91/57/115
f 92/58/116 91/57/115 90/56/114
f 91/57/115 92/58/116 93/59/117
f 94/60/118 93/59/117 92/58/116
f 93/59/117 94/60/118 95/61/119
f 96/62/120 95/61/119 94/60/118
f 97/63/121 89/55/113 98/64/122
f 91/57/115 98/64/122 89/55/113
f 98/64/122 91/57/115 99/65/123
f 93/59/117 99/65/123 91/57/115
f 99/65/123 93/59/117 100/66/124
f 95/61/119 100/66/124 93/59/117
f 101/67/125 97/63/121 102/68/126
f 98/64/122 102/68/126 97/63/121
f 102/68/126 98/64/122 103/69/127
f 99/65/123 103/69/127 98/64/122
f 103/69/127 99/65/123 104/70/128
f 100/66/124 104/70/128 99/65/123
f 105/55/129 106/56/130 107/57/131
f 108/58/132 107/57/131 106/56/130
f 107/57/131 108/58/132 109/59/133
f 110/60/134 109/59/133 108/58/132
f 109/59/133 110/60/134 111/61/135
f 112/62/136 111/61/135 110/60/134
f 113/63/137 105/55/129 114/64/138
f 107/57/131 114/64/138 105/55/129
f 114/64/138 107/57/131 115/65/139
f 109/59/133 115/65/139 107/57/131
f 115/65/139 109/59/133 116/66/140
f 111/61/135 116/66/140 109/59/133
f 117/67/141 113/63/137 118/68/142
f 114/64/138 118/68/142 113/63/137
f 118/68/142 114/64/138 119/69/143
f 115/65/139 119/69/143 114/64/138
f 119/69/143 115/65/139 120/70/144
f 116/66/140 120/70/144 115/65/139
f 121/55/145 122/56/146 123/57/147
f 124/58/148 123/57/147 122/56/146
f 123/57/147 124/58/148 125/59/149
f 126/60/150 125/59/149 124/58/148
f 125/59/149 126/60/150 127/61/151
f 128/62/152 127/61/151 126/60/150
f 129/63/153 121/55/145 130/64/154
f 123/57/147 130/64/154 121/55/145
f 130/64/154 123/57/147 131/65/155
f 125/59/149 131/65/155 123/57/147
f 131/65/155 125/59/149 132/66/156
f 127/61/151 132/66/156 125/59/149
f 133/67/157 129/63/153 134/68/158
f 130/64/154 134/68/158 129/63/153
f 134/68/158 130/64/154 135/69/159
f 131/65/155 135/69/159 130/64/154
f 135/69/159 131/65/155 136/70/160
f 132/66/156 136/70/160 131/65/155
# 126 triangles in group

# 174 triangles total

